<mxfile host="Electron" modified="2023-06-20T09:29:20.545Z" agent="Mozilla/5.0 (Macintosh; Intel Mac OS X 10_15_7) AppleWebKit/537.36 (KHTML, like Gecko) draw.io/21.3.7 Chrome/112.0.5615.204 Electron/24.5.0 Safari/537.36" etag="sF3IDEX-EjXIcO-jy1ZT" version="21.3.7" type="device">
  <diagram id="_8XqnitCR5riVehCX4SC" name="Página-1">
    <mxGraphModel dx="1451" dy="2221" grid="1" gridSize="10" guides="1" tooltips="1" connect="1" arrows="1" fold="1" page="1" pageScale="1" pageWidth="827" pageHeight="1169" math="0" shadow="0">
      <root>
        <mxCell id="0" />
        <mxCell id="1" parent="0" />
        <mxCell id="JRvN3a9iTkNBa2zJibEE-9" value="«Componet»&lt;br&gt;&lt;b&gt;Kununua App&lt;/b&gt;" style="html=1;dropTarget=0;shadow=0;fillColor=#FFE599;strokeColor=#3333FF;" parent="1" vertex="1">
          <mxGeometry x="1090" y="-10" width="180" height="90" as="geometry" />
        </mxCell>
        <mxCell id="JRvN3a9iTkNBa2zJibEE-10" value="" style="shape=module;jettyWidth=8;jettyHeight=4;shadow=0;fillColor=#FFE599;strokeColor=#3333FF;" parent="JRvN3a9iTkNBa2zJibEE-9" vertex="1">
          <mxGeometry x="1" width="20" height="20" relative="1" as="geometry">
            <mxPoint x="-27" y="7" as="offset" />
          </mxGeometry>
        </mxCell>
        <mxCell id="JRvN3a9iTkNBa2zJibEE-11" value="«Component»&lt;br&gt;&lt;b&gt;Graphene Schema&lt;/b&gt;" style="html=1;dropTarget=0;shadow=0;fillColor=#FFE599;strokeColor=#3333FF;" parent="1" vertex="1">
          <mxGeometry x="1090" y="190" width="180" height="90" as="geometry" />
        </mxCell>
        <mxCell id="JRvN3a9iTkNBa2zJibEE-12" value="" style="shape=module;jettyWidth=8;jettyHeight=4;shadow=0;fillColor=#FFE599;strokeColor=#3333FF;" parent="JRvN3a9iTkNBa2zJibEE-11" vertex="1">
          <mxGeometry x="1" width="20" height="20" relative="1" as="geometry">
            <mxPoint x="-27" y="7" as="offset" />
          </mxGeometry>
        </mxCell>
        <mxCell id="3MMH90Jp72VdnezdmtRq-1" value="«Component»&lt;br&gt;&lt;b&gt;Authentication&lt;/b&gt;" style="html=1;dropTarget=0;shadow=0;fillColor=#FFE599;strokeColor=#3333FF;" parent="1" vertex="1">
          <mxGeometry x="770" y="344" width="180" height="90" as="geometry" />
        </mxCell>
        <mxCell id="3MMH90Jp72VdnezdmtRq-2" value="" style="shape=module;jettyWidth=8;jettyHeight=4;shadow=0;fillColor=#FFE599;strokeColor=#3333FF;" parent="3MMH90Jp72VdnezdmtRq-1" vertex="1">
          <mxGeometry x="1" width="20" height="20" relative="1" as="geometry">
            <mxPoint x="-27" y="7" as="offset" />
          </mxGeometry>
        </mxCell>
        <mxCell id="3MMH90Jp72VdnezdmtRq-3" value="«Component»&lt;br&gt;&lt;b&gt;Data&lt;/b&gt;" style="html=1;dropTarget=0;shadow=0;fillColor=#FFE599;strokeColor=#3333FF;" parent="1" vertex="1">
          <mxGeometry x="995" y="625" width="180" height="90" as="geometry" />
        </mxCell>
        <mxCell id="3MMH90Jp72VdnezdmtRq-4" value="" style="shape=module;jettyWidth=8;jettyHeight=4;shadow=0;fillColor=#FFE599;strokeColor=#3333FF;" parent="3MMH90Jp72VdnezdmtRq-3" vertex="1">
          <mxGeometry x="1" width="20" height="20" relative="1" as="geometry">
            <mxPoint x="-27" y="7" as="offset" />
          </mxGeometry>
        </mxCell>
        <mxCell id="3MMH90Jp72VdnezdmtRq-7" value="«Component»&lt;br&gt;&lt;b&gt;Location&lt;br&gt;&lt;/b&gt;" style="html=1;dropTarget=0;shadow=0;fillColor=#FFE599;strokeColor=#3333FF;" parent="1" vertex="1">
          <mxGeometry x="1412" y="544" width="180" height="90" as="geometry" />
        </mxCell>
        <mxCell id="3MMH90Jp72VdnezdmtRq-8" value="" style="shape=module;jettyWidth=8;jettyHeight=4;shadow=0;fillColor=#FFE599;strokeColor=#3333FF;" parent="3MMH90Jp72VdnezdmtRq-7" vertex="1">
          <mxGeometry x="1" width="20" height="20" relative="1" as="geometry">
            <mxPoint x="-27" y="7" as="offset" />
          </mxGeometry>
        </mxCell>
        <mxCell id="3MMH90Jp72VdnezdmtRq-9" value="«Component»&lt;br&gt;&lt;b&gt;Products&lt;br&gt;&lt;/b&gt;" style="html=1;dropTarget=0;shadow=0;fillColor=#FFE599;strokeColor=#3333FF;" parent="1" vertex="1">
          <mxGeometry x="1410" y="344" width="180" height="90" as="geometry" />
        </mxCell>
        <mxCell id="3MMH90Jp72VdnezdmtRq-10" value="" style="shape=module;jettyWidth=8;jettyHeight=4;shadow=0;fillColor=#FFE599;strokeColor=#3333FF;" parent="3MMH90Jp72VdnezdmtRq-9" vertex="1">
          <mxGeometry x="1" width="20" height="20" relative="1" as="geometry">
            <mxPoint x="-27" y="7" as="offset" />
          </mxGeometry>
        </mxCell>
        <mxCell id="3MMH90Jp72VdnezdmtRq-11" value="«Component»&lt;br&gt;&lt;b&gt;Scrapers&lt;br&gt;&lt;/b&gt;" style="html=1;dropTarget=0;shadow=0;fillColor=#FFE599;strokeColor=#3333FF;" parent="1" vertex="1">
          <mxGeometry x="675" y="625" width="180" height="90" as="geometry" />
        </mxCell>
        <mxCell id="3MMH90Jp72VdnezdmtRq-12" value="" style="shape=module;jettyWidth=8;jettyHeight=4;shadow=0;fillColor=#FFE599;strokeColor=#3333FF;" parent="3MMH90Jp72VdnezdmtRq-11" vertex="1">
          <mxGeometry x="1" width="20" height="20" relative="1" as="geometry">
            <mxPoint x="-27" y="7" as="offset" />
          </mxGeometry>
        </mxCell>
        <mxCell id="3MMH90Jp72VdnezdmtRq-23" value="" style="rounded=0;orthogonalLoop=1;jettySize=auto;html=1;endArrow=halfCircle;endFill=0;endSize=6;strokeWidth=1;shadow=0;fillColor=#FFE599;strokeColor=#3333FF;exitX=0.5;exitY=1;exitDx=0;exitDy=0;entryX=0.5;entryY=0.5;entryDx=0;entryDy=0;entryPerimeter=0;" parent="1" source="JRvN3a9iTkNBa2zJibEE-9" target="3MMH90Jp72VdnezdmtRq-26" edge="1">
          <mxGeometry relative="1" as="geometry">
            <mxPoint x="1330" y="90" as="sourcePoint" />
            <Array as="points">
              <mxPoint x="1180" y="110" />
              <mxPoint x="1180" y="120" />
            </Array>
            <mxPoint x="1310" y="170" as="targetPoint" />
          </mxGeometry>
        </mxCell>
        <mxCell id="3MMH90Jp72VdnezdmtRq-26" value="" style="ellipse;whiteSpace=wrap;html=1;fontFamily=Helvetica;fontSize=12;fontColor=#000000;align=center;strokeColor=#3333FF;fillColor=#FFE599;points=[];aspect=fixed;resizable=0;shadow=0;" parent="1" vertex="1">
          <mxGeometry x="1175" y="130" width="10" height="10" as="geometry" />
        </mxCell>
        <mxCell id="3MMH90Jp72VdnezdmtRq-27" value="" style="rounded=0;orthogonalLoop=1;jettySize=auto;html=1;endArrow=none;endFill=0;shadow=0;fillColor=#FFE599;strokeColor=#3333FF;exitX=0.5;exitY=0;exitDx=0;exitDy=0;" parent="1" source="JRvN3a9iTkNBa2zJibEE-11" edge="1">
          <mxGeometry relative="1" as="geometry">
            <mxPoint x="1380" y="270" as="sourcePoint" />
            <mxPoint x="1180" y="140" as="targetPoint" />
            <Array as="points">
              <mxPoint x="1180" y="170" />
            </Array>
          </mxGeometry>
        </mxCell>
        <mxCell id="3MMH90Jp72VdnezdmtRq-28" value="KununuaQuery&lt;br&gt;KununuaMutation" style="text;html=1;align=center;verticalAlign=middle;resizable=0;points=[];autosize=1;shadow=0;fillColor=#FFE599;strokeColor=#3333FF;" parent="1" vertex="1">
          <mxGeometry x="1200" y="115" width="120" height="40" as="geometry" />
        </mxCell>
        <mxCell id="3MMH90Jp72VdnezdmtRq-38" value="" style="rounded=0;orthogonalLoop=1;jettySize=auto;html=1;endArrow=none;endFill=0;shadow=0;fillColor=#FFE599;strokeColor=#3333FF;exitX=0.5;exitY=0;exitDx=0;exitDy=0;" parent="1" source="3MMH90Jp72VdnezdmtRq-1" target="3MMH90Jp72VdnezdmtRq-40" edge="1">
          <mxGeometry relative="1" as="geometry">
            <mxPoint x="890" y="250" as="sourcePoint" />
          </mxGeometry>
        </mxCell>
        <mxCell id="3MMH90Jp72VdnezdmtRq-39" value="" style="rounded=0;orthogonalLoop=1;jettySize=auto;html=1;endArrow=halfCircle;endFill=0;entryX=0.5;entryY=0.5;entryDx=0;entryDy=0;endSize=6;strokeWidth=1;shadow=0;fillColor=#FFE599;strokeColor=#3333FF;exitX=0;exitY=0.5;exitDx=0;exitDy=0;" parent="1" source="JRvN3a9iTkNBa2zJibEE-11" target="3MMH90Jp72VdnezdmtRq-40" edge="1">
          <mxGeometry relative="1" as="geometry">
            <mxPoint x="750" y="360" as="sourcePoint" />
          </mxGeometry>
        </mxCell>
        <mxCell id="3MMH90Jp72VdnezdmtRq-40" value="" style="ellipse;whiteSpace=wrap;html=1;fontFamily=Helvetica;fontSize=12;fontColor=#000000;align=center;strokeColor=#3333FF;fillColor=#FFE599;points=[];aspect=fixed;resizable=0;shadow=0;" parent="1" vertex="1">
          <mxGeometry x="855" y="230" width="10" height="10" as="geometry" />
        </mxCell>
        <mxCell id="3MMH90Jp72VdnezdmtRq-41" value="SchemeAuthenticationQuery&lt;br&gt;SchemeAuthenticationMutation" style="text;html=1;align=center;verticalAlign=middle;resizable=0;points=[];autosize=1;shadow=0;fillColor=#FFE599;strokeColor=#3333FF;" parent="1" vertex="1">
          <mxGeometry x="865" y="250" width="190" height="40" as="geometry" />
        </mxCell>
        <mxCell id="3MMH90Jp72VdnezdmtRq-42" value="SchemeProductsQuery&lt;br&gt;SchemeProductsMutation" style="text;html=1;align=center;verticalAlign=middle;resizable=0;points=[];autosize=1;shadow=0;fillColor=#FFE599;strokeColor=#3333FF;" parent="1" vertex="1">
          <mxGeometry x="1330" y="250" width="160" height="40" as="geometry" />
        </mxCell>
        <mxCell id="3MMH90Jp72VdnezdmtRq-44" value="" style="rounded=0;orthogonalLoop=1;jettySize=auto;html=1;endArrow=halfCircle;endFill=0;endSize=6;strokeWidth=1;shadow=0;fillColor=#FFE599;strokeColor=#3333FF;exitX=1;exitY=0.5;exitDx=0;exitDy=0;" parent="1" source="JRvN3a9iTkNBa2zJibEE-11" edge="1">
          <mxGeometry relative="1" as="geometry">
            <mxPoint x="1100" y="245" as="sourcePoint" />
            <mxPoint x="1500" y="235" as="targetPoint" />
          </mxGeometry>
        </mxCell>
        <mxCell id="3MMH90Jp72VdnezdmtRq-45" value="" style="ellipse;whiteSpace=wrap;html=1;fontFamily=Helvetica;fontSize=12;fontColor=#000000;align=center;strokeColor=#3333FF;fillColor=#FFE599;points=[];aspect=fixed;resizable=0;shadow=0;" parent="1" vertex="1">
          <mxGeometry x="1495" y="230" width="10" height="10" as="geometry" />
        </mxCell>
        <mxCell id="3MMH90Jp72VdnezdmtRq-46" value="" style="rounded=0;orthogonalLoop=1;jettySize=auto;html=1;endArrow=none;endFill=0;shadow=0;fillColor=#FFE599;strokeColor=#3333FF;exitX=0.5;exitY=0;exitDx=0;exitDy=0;entryX=0.509;entryY=1.037;entryDx=0;entryDy=0;entryPerimeter=0;" parent="1" source="3MMH90Jp72VdnezdmtRq-9" target="3MMH90Jp72VdnezdmtRq-45" edge="1">
          <mxGeometry relative="1" as="geometry">
            <mxPoint x="1499.55" y="454" as="sourcePoint" />
            <mxPoint x="1499.55" y="254" as="targetPoint" />
          </mxGeometry>
        </mxCell>
        <mxCell id="3MMH90Jp72VdnezdmtRq-48" value="" style="html=1;verticalAlign=bottom;endArrow=open;dashed=1;endSize=8;shadow=0;fillColor=#FFE599;strokeColor=#3333FF;entryX=0.5;entryY=1;entryDx=0;entryDy=0;exitX=0.489;exitY=-0.003;exitDx=0;exitDy=0;exitPerimeter=0;" parent="1" source="3MMH90Jp72VdnezdmtRq-7" target="3MMH90Jp72VdnezdmtRq-9" edge="1">
          <mxGeometry relative="1" as="geometry">
            <mxPoint x="1500" y="540" as="sourcePoint" />
            <mxPoint x="1505" y="498.47" as="targetPoint" />
            <Array as="points" />
          </mxGeometry>
        </mxCell>
        <mxCell id="3MMH90Jp72VdnezdmtRq-49" value="" style="shape=requiredInterface;html=1;verticalLabelPosition=bottom;direction=south;shadow=0;fillColor=#FFE599;strokeColor=#3333FF;" parent="1" vertex="1">
          <mxGeometry x="755" y="540" width="20" height="10" as="geometry" />
        </mxCell>
        <mxCell id="3MMH90Jp72VdnezdmtRq-50" value="Scrapers API" style="text;html=1;align=center;verticalAlign=middle;resizable=0;points=[];autosize=1;shadow=0;fillColor=#FFE599;strokeColor=#3333FF;" parent="1" vertex="1">
          <mxGeometry x="720" y="510" width="90" height="30" as="geometry" />
        </mxCell>
        <mxCell id="3MMH90Jp72VdnezdmtRq-51" value="" style="endArrow=none;html=1;shadow=0;fillColor=#FFE599;strokeColor=#3333FF;exitX=0.5;exitY=0;exitDx=0;exitDy=0;entryX=1;entryY=0.5;entryDx=0;entryDy=0;entryPerimeter=0;" parent="1" source="3MMH90Jp72VdnezdmtRq-11" target="3MMH90Jp72VdnezdmtRq-49" edge="1">
          <mxGeometry width="50" height="50" relative="1" as="geometry">
            <mxPoint x="764.71" y="608" as="sourcePoint" />
            <mxPoint x="764.71" y="548" as="targetPoint" />
            <Array as="points" />
          </mxGeometry>
        </mxCell>
        <mxCell id="3MMH90Jp72VdnezdmtRq-55" value="" style="shape=requiredInterface;html=1;verticalLabelPosition=bottom;direction=south;shadow=0;fillColor=#FFE599;strokeColor=#3333FF;" parent="1" vertex="1">
          <mxGeometry x="1075" y="540" width="20" height="10" as="geometry" />
        </mxCell>
        <mxCell id="3MMH90Jp72VdnezdmtRq-56" value="Data API" style="text;html=1;align=center;verticalAlign=middle;resizable=0;points=[];autosize=1;shadow=0;fillColor=#FFE599;strokeColor=#3333FF;" parent="1" vertex="1">
          <mxGeometry x="1050" y="510" width="70" height="30" as="geometry" />
        </mxCell>
        <mxCell id="3MMH90Jp72VdnezdmtRq-57" value="" style="endArrow=none;html=1;shadow=0;fillColor=#FFE599;strokeColor=#3333FF;exitX=0.5;exitY=0;exitDx=0;exitDy=0;entryX=1;entryY=0.5;entryDx=0;entryDy=0;entryPerimeter=0;" parent="1" source="3MMH90Jp72VdnezdmtRq-3" target="3MMH90Jp72VdnezdmtRq-55" edge="1">
          <mxGeometry width="50" height="50" relative="1" as="geometry">
            <mxPoint x="1070" y="620" as="sourcePoint" />
            <mxPoint x="1069.71" y="553" as="targetPoint" />
            <Array as="points" />
          </mxGeometry>
        </mxCell>
        <mxCell id="uw5NWPSay4v6NuRQpnbQ-1" value="«Component»&lt;br&gt;&lt;b&gt;MatchingUtil&lt;/b&gt;" style="html=1;dropTarget=0;shadow=0;fillColor=#FFE599;strokeColor=#3333FF;" vertex="1" parent="1">
          <mxGeometry x="1110" y="344" width="180" height="90" as="geometry" />
        </mxCell>
        <mxCell id="uw5NWPSay4v6NuRQpnbQ-2" value="" style="shape=module;jettyWidth=8;jettyHeight=4;shadow=0;fillColor=#FFE599;strokeColor=#3333FF;" vertex="1" parent="uw5NWPSay4v6NuRQpnbQ-1">
          <mxGeometry x="1" width="20" height="20" relative="1" as="geometry">
            <mxPoint x="-27" y="7" as="offset" />
          </mxGeometry>
        </mxCell>
        <mxCell id="uw5NWPSay4v6NuRQpnbQ-3" value="" style="rounded=0;orthogonalLoop=1;jettySize=auto;html=1;endArrow=none;endFill=0;shadow=0;fillColor=#FFE599;strokeColor=#3333FF;exitX=1;exitY=0.5;exitDx=0;exitDy=0;" edge="1" parent="1" source="3MMH90Jp72VdnezdmtRq-3">
          <mxGeometry relative="1" as="geometry">
            <mxPoint x="1241" y="674" as="sourcePoint" />
            <mxPoint x="1240" y="600" as="targetPoint" />
            <Array as="points">
              <mxPoint x="1240" y="670" />
            </Array>
          </mxGeometry>
        </mxCell>
        <mxCell id="uw5NWPSay4v6NuRQpnbQ-4" value="" style="ellipse;whiteSpace=wrap;html=1;fontFamily=Helvetica;fontSize=12;fontColor=#000000;align=center;strokeColor=#3333FF;fillColor=#FFE599;points=[];aspect=fixed;resizable=0;shadow=0;" vertex="1" parent="1">
          <mxGeometry x="1235" y="590" width="10" height="10" as="geometry" />
        </mxCell>
        <mxCell id="uw5NWPSay4v6NuRQpnbQ-6" value="" style="rounded=0;orthogonalLoop=1;jettySize=auto;html=1;endArrow=halfCircle;endFill=0;endSize=6;strokeWidth=1;shadow=0;fillColor=#FFE599;strokeColor=#3333FF;exitX=0.721;exitY=1.002;exitDx=0;exitDy=0;exitPerimeter=0;" edge="1" parent="1" source="uw5NWPSay4v6NuRQpnbQ-1">
          <mxGeometry relative="1" as="geometry">
            <mxPoint x="1239" y="470" as="sourcePoint" />
            <mxPoint x="1240" y="595" as="targetPoint" />
          </mxGeometry>
        </mxCell>
        <mxCell id="uw5NWPSay4v6NuRQpnbQ-7" value="SQLiteAPI" style="text;html=1;align=center;verticalAlign=middle;resizable=0;points=[];autosize=1;shadow=0;fillColor=#FFE599;strokeColor=#3333FF;" vertex="1" parent="1">
          <mxGeometry x="1260" y="580" width="80" height="30" as="geometry" />
        </mxCell>
        <mxCell id="uw5NWPSay4v6NuRQpnbQ-8" value="" style="rounded=0;orthogonalLoop=1;jettySize=auto;html=1;endArrow=none;endFill=0;shadow=0;fillColor=#FFE599;strokeColor=#3333FF;exitX=1;exitY=0.5;exitDx=0;exitDy=0;" edge="1" parent="1" source="3MMH90Jp72VdnezdmtRq-11">
          <mxGeometry relative="1" as="geometry">
            <mxPoint x="940" y="684" as="sourcePoint" />
            <mxPoint x="910" y="670" as="targetPoint" />
          </mxGeometry>
        </mxCell>
        <mxCell id="uw5NWPSay4v6NuRQpnbQ-9" value="" style="ellipse;whiteSpace=wrap;html=1;fontFamily=Helvetica;fontSize=12;fontColor=#000000;align=center;strokeColor=#3333FF;fillColor=#FFE599;points=[];aspect=fixed;resizable=0;shadow=0;" vertex="1" parent="1">
          <mxGeometry x="910" y="665" width="10" height="10" as="geometry" />
        </mxCell>
        <mxCell id="uw5NWPSay4v6NuRQpnbQ-10" value="" style="rounded=0;orthogonalLoop=1;jettySize=auto;html=1;endArrow=halfCircle;endFill=0;endSize=6;strokeWidth=1;shadow=0;fillColor=#FFE599;strokeColor=#3333FF;exitX=0;exitY=0.5;exitDx=0;exitDy=0;entryX=0.5;entryY=0.5;entryDx=0;entryDy=0;entryPerimeter=0;" edge="1" parent="1" source="3MMH90Jp72VdnezdmtRq-3" target="uw5NWPSay4v6NuRQpnbQ-9">
          <mxGeometry relative="1" as="geometry">
            <mxPoint x="930" y="607.5" as="sourcePoint" />
            <mxPoint x="930" y="680" as="targetPoint" />
          </mxGeometry>
        </mxCell>
        <mxCell id="uw5NWPSay4v6NuRQpnbQ-11" value="SQLiteAPI" style="text;html=1;align=center;verticalAlign=middle;resizable=0;points=[];autosize=1;shadow=0;fillColor=#FFE599;strokeColor=#3333FF;" vertex="1" parent="1">
          <mxGeometry x="880" y="685" width="80" height="30" as="geometry" />
        </mxCell>
        <mxCell id="uw5NWPSay4v6NuRQpnbQ-13" value="" style="rounded=0;orthogonalLoop=1;jettySize=auto;html=1;endArrow=none;endFill=0;shadow=0;fillColor=#FFE599;strokeColor=#3333FF;exitX=1;exitY=0.5;exitDx=0;exitDy=0;entryX=-0.013;entryY=0.485;entryDx=0;entryDy=0;entryPerimeter=0;" edge="1" parent="1" target="uw5NWPSay4v6NuRQpnbQ-16">
          <mxGeometry relative="1" as="geometry">
            <mxPoint x="1290" y="400" as="sourcePoint" />
            <mxPoint x="1330" y="400" as="targetPoint" />
          </mxGeometry>
        </mxCell>
        <mxCell id="uw5NWPSay4v6NuRQpnbQ-14" value="" style="rounded=0;orthogonalLoop=1;jettySize=auto;html=1;endArrow=halfCircle;endFill=0;endSize=6;strokeWidth=1;shadow=0;fillColor=#FFE599;strokeColor=#3333FF;entryX=0.5;entryY=0.5;entryDx=0;entryDy=0;entryPerimeter=0;" edge="1" parent="1" target="uw5NWPSay4v6NuRQpnbQ-16">
          <mxGeometry relative="1" as="geometry">
            <mxPoint x="1410" y="400" as="sourcePoint" />
            <mxPoint x="1350" y="400" as="targetPoint" />
          </mxGeometry>
        </mxCell>
        <mxCell id="uw5NWPSay4v6NuRQpnbQ-15" value="Post Processing" style="text;html=1;align=center;verticalAlign=middle;resizable=0;points=[];autosize=1;shadow=0;fillColor=#FFE599;strokeColor=#3333FF;" vertex="1" parent="1">
          <mxGeometry x="1295" y="420" width="110" height="30" as="geometry" />
        </mxCell>
        <mxCell id="uw5NWPSay4v6NuRQpnbQ-16" value="" style="ellipse;whiteSpace=wrap;html=1;fontFamily=Helvetica;fontSize=12;fontColor=#000000;align=center;strokeColor=#3333FF;fillColor=#FFE599;points=[];aspect=fixed;resizable=0;shadow=0;" vertex="1" parent="1">
          <mxGeometry x="1340" y="395" width="10" height="10" as="geometry" />
        </mxCell>
      </root>
    </mxGraphModel>
  </diagram>
</mxfile>
